# xmcd CD database file
#
# Track frame offsets:
#	150
#	11864
#	24014
#	36685
#	52036
#	65756
#	80363
#	92431
#	104005
#	116476
#	137701
#	150526
#	165025
#	178571
#	200358
#	215492
#	226846
#	239256
#	252901
#	264649
#
# Disc length: 3733 seconds
#
# Revision: 0
# Processed by: cddbd v1.5.2PL0 Copyright (c) Steve Scherf et al.
# Submitted via: CDex 1.51
#
DISCID=0a0e9314
DTITLE=Sarah Vaughan - Sarah Vaughan
DYEAR=2006
DGENRE=Jazz
TTITLE0=Whatever Lola Wats
TTITLE1=They Cna't Take That Away
TTITLE2=What A Difference A Day Made
TTITLE3=Lover Man
TTITLE4=My Funny Valentine
TTITLE5=It Might As Well Be Spring
TTITLE6=Shulie A Bop
TTITLE7=Polka Dots and Moonbeams
TTITLE8=Prelude To A Kiss
TTITLE9=You're Not The Kind
TTITLE10=My One And Only Love
TTITLE11=Body And Soul
TTITLE12=You Hit The Spot
TTITLE13=Embraceable You
TTITLE14=The Nearness of You
TTITLE15=If I Knew Then (What I Know Now)
TTITLE16=It's Easy To Remember
TTITLE17=Ain't Misbehavin'
TTITLE18=Nice Work If You Can Get It
TTITLE19=Come Rain Or Come Shine
EXTD=YEAR: 2006
EXTT0=
EXTT1=
EXTT2=
EXTT3=
EXTT4=
EXTT5=
EXTT6=
EXTT7=
EXTT8=
EXTT9=
EXTT10=
EXTT11=
EXTT12=
EXTT13=
EXTT14=
EXTT15=
EXTT16=
EXTT17=
EXTT18=
EXTT19=
PLAYORDER=
